<?xml version="1.0" encoding="utf-8"?>
<!-- Generator: Adobe Illustrator 21.0.0, SVG Export Plug-In . SVG Version: 6.00 Build 0)  -->
<svg version="1.1" id="Слой_1" xmlns="http://www.w3.org/2000/svg" xmlns:xlink="http://www.w3.org/1999/xlink" x="0px" y="0px"
	 viewBox="0 0 99 51" style="enable-background:new 0 0 99 51;" xml:space="preserve">
<style type="text/css">
	.st0{clip-path:url(#SVGID_2_);fill:#4E5D6C;}
	.st1{fill:#4E5D6C;}
</style>
<g>
	<defs>
		<rect id="SVGID_1_" y="0.6" width="99.2" height="50.4"/>
	</defs>
	<clipPath id="SVGID_2_">
		<use xlink:href="#SVGID_1_"  style="overflow:visible;"/>
	</clipPath>
	<path class="st0" d="M69.4,33.4H29.8L22.5,0.6h54.2L69.4,33.4z M30.6,32.4h38l6.9-30.7H23.7L30.6,32.4z"/>
	<path class="st0" d="M39.1,47.1c-3.3,0-6-2.7-6-6s2.7-6,6-6s6,2.7,6,6S42.4,47.1,39.1,47.1z M39.1,36.1c-2.8,0-5,2.2-5,5s2.2,5,5,5
		s5-2.2,5-5S41.9,36.1,39.1,36.1z"/>
	<path class="st0" d="M60.1,47.1c-3.3,0-6-2.7-6-6s2.7-6,6-6s6,2.7,6,6S63.4,47.1,60.1,47.1z M60.1,36.1c-2.8,0-5,2.2-5,5s2.2,5,5,5
		s5-2.2,5-5S62.9,36.1,60.1,36.1z"/>
	<rect y="50" class="st0" width="99.2" height="1"/>
</g>
<path class="st1" d="M50.4,11.4h-1h-6.7V3.7h-8.5v8.5h7.7v6.7v1v7.5h7.5h1h7.5v-7.5v-1v-7.5H50.4z M41.7,11.2h-6.5V4.7h6.5V11.2z
	 M42.9,12.4h6.5v6.5h-6.5V12.4z M49.4,26.4h-6.5v-6.5h6.5V26.4z M56.9,26.4h-6.5v-6.5h6.5V26.4z M50.4,18.9v-6.5h6.5v6.5H50.4z"/>
</svg>
