<?xml version="1.0" encoding="utf-8"?>
<!-- Generator: Adobe Illustrator 21.0.0, SVG Export Plug-In . SVG Version: 6.00 Build 0)  -->
<svg version="1.1" id="Слой_1" xmlns="http://www.w3.org/2000/svg" xmlns:xlink="http://www.w3.org/1999/xlink" x="0px" y="0px"
	 viewBox="0 0 66 42" style="enable-background:new 0 0 66 42;" xml:space="preserve">
<style type="text/css">
	.st0{fill:#4E5D6C;}
</style>
<path class="st0" d="M41.8,41.3L25.9,25.4c2.5-2.7,4.1-6.3,4.1-10.2c0-8.3-6.7-15-15-15c-8.3,0-15,6.7-15,15c0,8.3,6.7,15,15,15
	c3.9,0,7.5-1.5,10.2-4.1L41.1,42L41.8,41.3z M15,29.1c-7.7,0-14-6.3-14-14s6.3-14,14-14s14,6.3,14,14c0,3.7-1.4,7-3.8,9.5l0,0
	l-0.7,0.7l0,0C22,27.7,18.6,29.1,15,29.1z"/>
<rect x="29.9" y="0.2" class="st0" width="36.1" height="1"/>
<rect x="38.5" y="20.6" class="st0" width="27.5" height="1"/>
<rect x="38.5" y="9.7" class="st0" width="8" height="1"/>
<rect x="46.5" y="41" class="st0" width="19.5" height="1"/>
<rect x="42.5" y="30.8" class="st0" width="18" height="1"/>
</svg>
