<?xml version="1.0" encoding="utf-8"?>
<!-- Generator: Adobe Illustrator 21.0.0, SVG Export Plug-In . SVG Version: 6.00 Build 0)  -->
<svg version="1.1" id="Слой_1" xmlns="http://www.w3.org/2000/svg" xmlns:xlink="http://www.w3.org/1999/xlink" x="0px" y="0px"
	 viewBox="0 0 54 54" style="enable-background:new 0 0 54 54;" xml:space="preserve">
<style type="text/css">
	.st0{clip-path:url(#SVGID_2_);fill:#4E5D6C;}
	.st1{fill:#4E5D6C;}
</style>
<g>
	<defs>
		<rect id="SVGID_1_" width="54" height="54"/>
	</defs>
	<clipPath id="SVGID_2_">
		<use xlink:href="#SVGID_1_"  style="overflow:visible;"/>
	</clipPath>
	<path class="st0" d="M54,54H0V0h54V54z M1,53h52V1H1V53z"/>
</g>
<polygon class="st1" points="38.9,44.6 44.9,44.9 44.6,38.9 43.6,38.9 43.8,43.1 27.7,27 43.4,11.3 43.3,15.5 44.3,15.5 44.5,9.5 
	38.5,9.7 38.5,10.7 42.7,10.6 27,26.3 10.9,10.2 15.1,10.4 15.1,9.4 9.1,9.1 9.4,15.1 10.4,15.1 10.2,10.9 26.3,27 10.6,42.7 
	10.7,38.5 9.7,38.5 9.5,44.5 15.5,44.3 15.5,43.3 11.3,43.4 27,27.7 43.1,43.8 38.9,43.6 "/>
</svg>
