<?xml version="1.0" encoding="utf-8"?>
<!-- Generator: Adobe Illustrator 21.0.0, SVG Export Plug-In . SVG Version: 6.00 Build 0)  -->
<svg version="1.1" id="Слой_1" xmlns="http://www.w3.org/2000/svg" xmlns:xlink="http://www.w3.org/1999/xlink" x="0px" y="0px"
	 viewBox="0 0 48 48" style="enable-background:new 0 0 48 48;" xml:space="preserve">
<style type="text/css">
	.st0{fill:#FFFFFF;}
</style>
<path class="st0" d="M47.3,22.8h-22v-22h22V22.8z M26.3,21.8h20v-20h-20V21.8z"/>
<path class="st0" d="M23,47H1V25h22V47z M2,46h20V26H2V46z"/>
<g>
	<polygon class="st0" points="39.8,27.8 38.8,27.8 38.8,37.3 30.3,37.3 33.3,34.4 32.6,33.7 28.3,37.7 32.6,41.8 33.3,41.1 
		30.3,38.3 39.8,38.3 	"/>
	<polygon class="st0" points="14.2,5.4 17.2,8.3 7.8,8.3 7.8,18.8 8.8,18.8 8.8,9.3 17.2,9.3 14.2,12.1 14.9,12.9 19.3,8.8 
		14.9,4.7 	"/>
</g>
</svg>
