<?xml version="1.0" encoding="utf-8"?>
<!-- Generator: Adobe Illustrator 21.0.0, SVG Export Plug-In . SVG Version: 6.00 Build 0)  -->
<svg version="1.1" id="Слой_1" xmlns="http://www.w3.org/2000/svg" xmlns:xlink="http://www.w3.org/1999/xlink" x="0px" y="0px"
	 viewBox="0 0 48 48" style="enable-background:new 0 0 48 48;" xml:space="preserve">
<style type="text/css">
	.st0{fill:#FFFFFF;}
</style>
<path class="st0" d="M22,48H0V26h22V48z M1,47h20V27H1V47z"/>
<path class="st0" d="M22,10.8h-9.9V0.9H22V10.8z M13.1,9.8H21V1.9h-7.9V9.8z"/>
<path class="st0" d="M9.9,10.8H0V0.9h9.9V10.8z M1,9.8h7.9V1.9H1V9.8z"/>
<path class="st0" d="M47.1,36.2h-9.9v-9.9h9.9V36.2z M38.2,35.2h7.9v-7.9h-7.9V35.2z"/>
<path class="st0" d="M47.1,48h-9.9v-9.9h9.9V48z M38.2,47h7.9v-7.9h-7.9V47z"/>
<g>
	<polygon class="st0" points="17.6,21.5 17.6,12.6 16.6,12.6 16.6,21.5 13.7,18.4 13,19.1 17.1,23.5 21.2,19.1 20.4,18.4 	"/>
	<polygon class="st0" points="5.4,21.5 5.4,12.6 4.4,12.6 4.4,21.5 1.6,18.4 0.8,19.1 4.9,23.5 9,19.1 8.3,18.4 	"/>
	<polygon class="st0" points="25.8,31.2 28.8,28.4 28.2,27.6 23.8,31.7 28.2,35.8 28.8,35.1 25.8,32.2 34.6,32.2 34.6,31.2 	"/>
	<polygon class="st0" points="28.8,40.2 28.2,39.5 23.8,43.5 28.2,47.6 28.8,46.9 25.8,44 34.6,44 34.6,43 25.8,43 	"/>
</g>
</svg>
