<?xml version="1.0" standalone="no"?>
<!DOCTYPE svg PUBLIC "-//W3C//DTD SVG 20010904//EN"
 "http://www.w3.org/TR/2001/REC-SVG-20010904/DTD/svg10.dtd">
<svg version="1.0" xmlns="http://www.w3.org/2000/svg"
 width="700.000000pt" height="700.000000pt" viewBox="0 0 700.000000 700.000000"
 preserveAspectRatio="xMidYMid meet">
<metadata>
Created by potrace 1.11, written by Peter Selinger 2001-2013
</metadata>
<g transform="translate(0.000000,700.000000) scale(0.100000,-0.100000)"
fill="#000000" stroke="none">
<path d="M5958 6375 c-2 -2 -41 -5 -88 -9 -149 -12 -218 -24 -355 -63 -386
-109 -690 -353 -845 -678 -114 -239 -155 -444 -155 -782 0 -120 -2 -143 -15
-144 -8 -1 -131 -1 -273 -1 l-258 -1 3 -266 c3 -255 4 -268 26 -309 25 -46 82
-93 152 -124 41 -18 256 -71 325 -81 l30 -4 5 -1539 5 -1539 565 1 c311 1 571
2 578 3 9 1 12 315 12 1536 l0 1535 435 0 434 0 0 395 0 395 -455 0 -455 0 2
144 c4 234 27 350 94 461 92 152 227 215 495 229 165 9 214 24 275 80 55 53
63 83 70 276 3 85 7 214 10 286 l5 132 -67 16 c-80 18 -180 36 -243 43 -49 5
-308 11 -312 8z"/>
<path d="M2209 4756 c-2 -2 -38 -6 -79 -10 -172 -15 -409 -72 -550 -134 -177
-77 -293 -143 -410 -233 -301 -232 -513 -556 -624 -954 -27 -95 -55 -226 -61
-279 -1 -17 -7 -62 -11 -101 -11 -84 -11 -468 -2 -545 4 -30 10 -80 14 -110 8
-72 57 -289 85 -376 52 -163 154 -370 248 -504 365 -522 945 -784 1611 -728
127 11 209 19 233 24 20 4 107 20 167 31 14 2 50 11 80 20 30 9 60 18 67 19
33 6 218 81 295 119 119 60 278 164 363 238 75 66 205 196 205 206 -1 11 -358
441 -382 461 -48 37 -104 52 -181 48 -84 -4 -123 -21 -236 -106 -150 -113
-229 -155 -350 -188 -72 -19 -105 -22 -235 -20 -107 2 -168 7 -211 20 -196 56
-352 191 -452 391 -38 75 -86 210 -98 273 -3 15 -7 38 -10 52 -27 125 -34 233
-30 450 2 118 5 224 8 235 2 11 7 41 11 66 29 201 82 349 172 484 108 163 268
263 470 295 70 11 235 14 289 5 30 -5 96 -17 105 -20 18 -4 58 -18 75 -24 11
-5 40 -17 65 -27 25 -10 88 -43 140 -73 163 -95 188 -105 262 -109 132 -8 174
26 398 323 79 105 149 193 154 198 25 17 -336 317 -383 317 -5 0 -11 4 -13 8
-6 15 -222 120 -313 152 -211 74 -378 100 -671 105 -117 2 -214 2 -215 1z"/>
</g>
</svg>
