<svg class="pic" version="1.1" id="Слой_1" xmlns="http://www.w3.org/2000/svg" xmlns:xlink="http://www.w3.org/1999/xlink" x="0px" y="0px"
		viewBox="0 0 320 267" style="enable-background:new 0 0 319.5 266.5;" xml:space="preserve">
  <style type="text/css">
    .st0{fill:none;}
    .st1{fill:#2B3E50;}
    .st2{fill:#4e5d6c; stroke: none;}
    .pic {
      stroke: #4e5d6c;
      stroke-width: 1;
      width: 320px;
    }

    @keyframes rope {
      0% {
        transform: rotate(-3deg);
      }
      50% {
        transform: rotate(3deg);
      }
      100% {
        transform: rotate(-3deg);
      }
    }

    .rope {
      transform-origin: 158.5px 57.1px;
      animation: rope 3s ease-in-out infinite;
    }

  </style>
  <rect x="238" y="5.8" class="st0" width="12.7" height="12.7"/>
  <line class="st0" x1="238" y1="18.6" x2="250.7" y2="5.8"/>
  <line class="st0" x1="238.1" y1="6" x2="250.7" y2="18.6"/>
  <rect x="238" y="18.6" class="st0" width="12.7" height="12.7"/>
  <line class="st0" x1="238" y1="31.3" x2="250.7" y2="18.6"/>
  <line class="st0" x1="238.1" y1="18.8" x2="250.7" y2="31.3"/>
  <rect x="238" y="31.3" class="st0" width="12.7" height="12.7"/>
  <line class="st0" x1="238" y1="44.1" x2="250.7" y2="31.3"/>
  <line class="st0" x1="238.1" y1="31.5" x2="250.7" y2="44.1"/>
  <rect x="238" y="44.1" class="st0" width="12.7" height="12.7"/>
  <line class="st0" x1="238" y1="56.8" x2="250.7" y2="44.1"/>
  <line class="st0" x1="238.1" y1="44.2" x2="250.7" y2="56.8"/>
  <rect x="238" y="56.8" class="st0" width="12.7" height="12.7"/>
  <line class="st0" x1="238" y1="69.6" x2="250.7" y2="56.8"/>
  <line class="st0" x1="238.1" y1="57" x2="250.7" y2="69.6"/>
  <rect x="238" y="69.6" class="st0" width="12.7" height="12.7"/>
  <line class="st0" x1="238" y1="82.3" x2="250.7" y2="69.6"/>
  <line class="st0" x1="238.1" y1="69.7" x2="250.7" y2="82.3"/>
  <rect x="238" y="82.3" class="st0" width="12.7" height="12.7"/>
  <line class="st0" x1="238" y1="95.1" x2="250.7" y2="82.3"/>
  <line class="st0" x1="238.1" y1="82.5" x2="250.7" y2="95.1"/>
  <rect x="238" y="95.1" class="st0" width="12.7" height="12.7"/>
  <line class="st0" x1="238" y1="107.8" x2="250.7" y2="95.1"/>
  <line class="st0" x1="238.1" y1="95.2" x2="250.7" y2="107.8"/>
  <rect x="238" y="107.8" class="st0" width="12.7" height="12.7"/>
  <line class="st0" x1="238" y1="120.6" x2="250.7" y2="107.8"/>
  <line class="st0" x1="238.1" y1="108" x2="250.7" y2="120.6"/>
  <rect x="238" y="120.6" class="st0" width="12.7" height="12.7"/>
  <line class="st0" x1="238" y1="133.3" x2="250.7" y2="120.6"/>
  <line class="st0" x1="238.1" y1="120.7" x2="250.7" y2="133.3"/>
  <rect x="238" y="133.3" class="st0" width="12.7" height="12.7"/>
  <line class="st0" x1="238" y1="146.1" x2="250.7" y2="133.3"/>
  <line class="st0" x1="238.1" y1="133.5" x2="250.7" y2="146.1"/>
  <rect x="238" y="146.1" class="st0" width="12.7" height="12.7"/>
  <line class="st0" x1="238" y1="158.8" x2="250.7" y2="146.1"/>
  <line class="st0" x1="238.1" y1="146.2" x2="250.7" y2="158.8"/>
  <rect x="238" y="158.8" class="st0" width="12.7" height="12.7"/>
  <line class="st0" x1="238" y1="171.6" x2="250.7" y2="158.8"/>
  <line class="st0" x1="238.1" y1="159" x2="250.7" y2="171.6"/>
  <rect x="238" y="171.6" class="st0" width="12.7" height="12.7"/>
  <line class="st0" x1="238" y1="184.3" x2="250.7" y2="171.6"/>
  <line class="st0" x1="238.1" y1="171.7" x2="250.7" y2="184.3"/>
  <rect x="238" y="184.3" class="st0" width="12.7" height="12.7"/>
  <line class="st0" x1="238" y1="197" x2="250.7" y2="184.3"/>
  <line class="st0" x1="238.1" y1="184.5" x2="250.7" y2="197"/>
  <rect x="238" y="197" class="st0" width="12.7" height="12.7"/>
  <line class="st0" x1="238" y1="209.8" x2="250.7" y2="197"/>
  <line class="st0" x1="238.1" y1="197.2" x2="250.7" y2="209.8"/>
  <rect x="238" y="209.8" class="st0" width="12.7" height="12.7"/>
  <line class="st0" x1="238" y1="222.5" x2="250.7" y2="209.8"/>
  <line class="st0" x1="238.1" y1="210" x2="250.7" y2="222.5"/>
  <rect x="238" y="222.5" class="st0" width="12.7" height="12.7"/>
  <line class="st0" x1="238" y1="235.3" x2="250.7" y2="222.5"/>
  <line class="st0" x1="238.1" y1="222.7" x2="250.7" y2="235.3"/>
  <rect x="238" y="235.3" class="st0" width="12.7" height="12.7"/>
  <line class="st0" x1="238" y1="248" x2="250.7" y2="235.3"/>
  <line class="st0" x1="238.1" y1="235.5" x2="250.7" y2="248"/>
  <rect x="238" y="248" class="st0" width="12.7" height="12.7"/>
  <line class="st0" x1="238" y1="260.8" x2="250.7" y2="248"/>
  <line class="st0" x1="238.1" y1="248.2" x2="250.7" y2="260.8"/>
  <rect x="301.6" y="43.9" transform="matrix(-1.836970e-16 1 -1 -1.836970e-16 358.2494 -257.6287)" class="st0" width="12.7" height="12.7"/>
  <line class="st0" x1="301.6" y1="43.9" x2="314.3" y2="56.7"/>
  <line class="st0" x1="314.1" y1="44.1" x2="301.6" y2="56.7"/>
  <rect x="288.8" y="43.9" transform="matrix(-1.836970e-16 1 -1 -1.836970e-16 345.5026 -244.8819)" class="st0" width="12.7" height="12.7"/>
  <line class="st0" x1="288.8" y1="43.9" x2="301.6" y2="56.7"/>
  <line class="st0" x1="301.4" y1="44.1" x2="288.8" y2="56.7"/>
  <rect x="276.1" y="43.9" transform="matrix(-1.836970e-16 1 -1 -1.836970e-16 332.7558 -232.1351)" class="st0" width="12.7" height="12.7"/>
  <line class="st0" x1="276.1" y1="43.9" x2="288.8" y2="56.7"/>
  <line class="st0" x1="288.7" y1="44.1" x2="276.1" y2="56.7"/>
  <rect x="263.3" y="43.9" transform="matrix(-1.836970e-16 1 -1 -1.836970e-16 320.0089 -219.3882)" class="st0" width="12.7" height="12.7"/>
  <line class="st0" x1="263.3" y1="43.9" x2="276.1" y2="56.7"/>
  <line class="st0" x1="275.9" y1="44.1" x2="263.3" y2="56.7"/>
  <rect x="250.6" y="43.9" transform="matrix(-1.836970e-16 1 -1 -1.836970e-16 307.2621 -206.6414)" class="st0" width="12.7" height="12.7"/>
  <line class="st0" x1="250.6" y1="43.9" x2="263.3" y2="56.7"/>
  <line class="st0" x1="263.2" y1="44.1" x2="250.6" y2="56.7"/>
  <rect x="237.8" y="43.9" transform="matrix(-1.836970e-16 1 -1 -1.836970e-16 294.5153 -193.8946)" class="st0" width="12.7" height="12.7"/>
  <line class="st0" x1="237.8" y1="43.9" x2="250.6" y2="56.7"/>
  <line class="st0" x1="250.4" y1="44.1" x2="237.8" y2="56.7"/>
  <rect x="225.1" y="43.9" transform="matrix(-1.836970e-16 1 -1 -1.836970e-16 281.7684 -181.1477)" class="st0" width="12.7" height="12.7"/>
  <line class="st0" x1="225.1" y1="43.9" x2="237.8" y2="56.7"/>
  <line class="st0" x1="237.7" y1="44.1" x2="225.1" y2="56.7"/>
  <rect x="212.3" y="43.9" transform="matrix(-1.836970e-16 1 -1 -1.836970e-16 269.0216 -168.4009)" class="st0" width="12.7" height="12.7"/>
  <line class="st0" x1="212.3" y1="43.9" x2="225.1" y2="56.7"/>
  <line class="st0" x1="224.9" y1="44.1" x2="212.3" y2="56.7"/>
  <rect x="199.6" y="43.9" transform="matrix(-1.836970e-16 1 -1 -1.836970e-16 256.2748 -155.6541)" class="st0" width="12.7" height="12.7"/>
  <line class="st0" x1="199.6" y1="43.9" x2="212.3" y2="56.7"/>
  <line class="st0" x1="212.2" y1="44.1" x2="199.6" y2="56.7"/>
  <rect x="186.8" y="43.9" transform="matrix(-1.836970e-16 1 -1 -1.836970e-16 243.5279 -142.9072)" class="st0" width="12.7" height="12.7"/>
  <line class="st0" x1="186.8" y1="43.9" x2="199.6" y2="56.7"/>
  <line class="st0" x1="199.4" y1="44.1" x2="186.8" y2="56.7"/>
  <rect x="174.1" y="43.9" transform="matrix(-1.836970e-16 1 -1 -1.836970e-16 230.7811 -130.1604)" class="st0" width="12.7" height="12.7"/>
  <line class="st0" x1="174.1" y1="43.9" x2="186.8" y2="56.7"/>
  <line class="st0" x1="186.7" y1="44.1" x2="174.1" y2="56.7"/>
  <rect x="161.4" y="43.9" transform="matrix(-1.836970e-16 1 -1 -1.836970e-16 218.0343 -117.4136)" class="st0" width="12.7" height="12.7"/>
  <line class="st0" x1="161.4" y1="43.9" x2="174.1" y2="56.7"/>
  <line class="st0" x1="173.9" y1="44.1" x2="161.4" y2="56.7"/>
  <rect x="148.6" y="43.9" transform="matrix(-1.836970e-16 1 -1 -1.836970e-16 205.2874 -104.6667)" class="st0" width="12.7" height="12.7"/>
  <line class="st0" x1="148.6" y1="43.9" x2="161.4" y2="56.7"/>
  <line class="st0" x1="161.2" y1="44.1" x2="148.6" y2="56.7"/>
  <rect x="135.9" y="43.9" transform="matrix(-1.836970e-16 1 -1 -1.836970e-16 192.5406 -91.9199)" class="st0" width="12.7" height="12.7"/>
  <line class="st0" x1="135.9" y1="43.9" x2="148.6" y2="56.7"/>
  <line class="st0" x1="148.4" y1="44.1" x2="135.9" y2="56.7"/>
  <rect x="123.1" y="43.9" transform="matrix(-1.836970e-16 1 -1 -1.836970e-16 179.7938 -79.1731)" class="st0" width="12.7" height="12.7"/>
  <line class="st0" x1="123.1" y1="43.9" x2="135.9" y2="56.7"/>
  <line class="st0" x1="135.7" y1="44.1" x2="123.1" y2="56.7"/>
  <rect x="110.4" y="43.9" transform="matrix(-1.836970e-16 1 -1 -1.836970e-16 167.047 -66.4262)" class="st0" width="12.7" height="12.7"/>
  <line class="st0" x1="110.4" y1="43.9" x2="123.1" y2="56.7"/>
  <line class="st0" x1="122.9" y1="44.1" x2="110.4" y2="56.7"/>
  <path class="st0" d="M133.2,252.5c-4.5-4.6-4.7-14.6-4.7-14.6h-20.2h-1.5H86.6c0,0-0.2,10.1-4.7,14.6c-4.5,4.6-11.6,8.7,0.7,8.7
    c9.8,0,20.3,0,24.2,0c1,0,1.5,0,1.5,0c3.9,0,14.4,0,24.2,0C144.8,261.2,137.7,257,133.2,252.5z"/>
  <path class="st0" d="M4.3,231.3c0,3.4,2.9,6.5,6.3,6.5h94.8h3.2h94.8c3.4,0,6.1-3.1,6.1-6.5V220H4.3V231.3z"/>
  <rect x="46.8" y="125.6" class="st0" width="4.3" height="4.3"/>
  <rect x="42.4" y="121.3" class="st0" width="4.3" height="4.3"/>
  <rect x="51.1" y="125.6" class="st0" width="4.3" height="4.3"/>
  <rect x="46.8" y="129.9" class="st0" width="4.3" height="4.3"/>
  <rect x="51.1" y="129.9" class="st0" width="4.3" height="4.3"/>
  <g class="rope">
    <line class="st0" x1="158.5" y1="57.1" x2="158.5" y2="114.6"/>
    
      <rect x="143.1" y="113" transform="matrix(0.9934 0.1145 -0.1145 0.9934 14.74 -17.3709)" class="st1" width="30.8" height="13.2"/>
  </g>
  <rect x="42.3" y="156.8" class="st0" width="84.2" height="42.3"/>
  <rect x="42.6" y="143.8" class="st0" width="15.6" height="6.1"/>
  <rect x="61.7" y="143.8" class="st0" width="15.6" height="6.1"/>
  <rect x="80.7" y="143.8" class="st0" width="15.6" height="6.1"/>
  <rect x="99.8" y="143.8" class="st0" width="15.6" height="6.1"/>
  <rect x="118.8" y="143.8" class="st0" width="15.6" height="6.1"/>
  <rect x="137.9" y="143.8" class="st0" width="15.6" height="6.1"/>
  <rect x="156.9" y="143.8" class="st0" width="15.6" height="6.1"/>
  <rect x="60.1" y="121.3" class="st0" width="78.3" height="13.2"/>
  <g>
    <circle class="st0" cx="130.4" cy="126.5" r="3"/>
  </g>
  <g>
    <line class="st0" x1="132.2" y1="128.3" x2="135.7" y2="131.8"/>
  </g>
  <rect x="130.1" y="157" class="st0" width="19.6" height="19.6"/>
  <rect x="152.9" y="157" class="st0" width="19.6" height="19.6"/>
  <rect x="130.1" y="179.2" class="st0" width="19.6" height="19.6"/>
  <rect x="152.9" y="179.2" class="st0" width="19.6" height="19.6"/>
  <rect x="89.2" y="170.4" class="st0" width="24.9" height="4.2"/>
  <rect x="91.7" y="174.5" class="st0" width="20.3" height="14.5"/>
  <rect x="98.3" y="170.4" class="st0" width="6.6" height="18.7"/>
  <path class="st0" d="M101.6,170.4c0,0,1.5-7.7,4.6-4.6C109.3,168.9,101.6,170.4,101.6,170.4z"/>
  <path class="st0" d="M101.6,170.4c0,0-1.5-7.7-4.6-4.6C93.9,168.9,101.6,170.4,101.6,170.4z"/>
  <rect x="144.3" y="55.6" class="st1" width="28.5" height="2.4"/>
  <rect x="144.3" y="42.6" class="st1" width="28.5" height="2.4"/>
  <rect x="281.3" y="55.6" class="st1" width="28.5" height="2.4"/>
  <rect x="281.3" y="42.6" class="st1" width="28.5" height="2.4"/>
  <rect x="225.2" y="42.3" class="st1" width="37.9" height="17.2"/>
  <rect x="225.5" y="254.3" class="st1" width="37.9" height="6.5"/>
  <rect x="235.6" y="3.5" class="st1" width="16.6" height="4.7"/>
  <line class="st0" x1="156.8" y1="42" x2="235.6" y2="5.8"/>
  <line class="st0" x1="252.2" y1="5.8" x2="295.5" y2="42.6"/>
  <path class="st2" d="M65.2,129.2c0.3,0.2,0.7,0.3,1.1,0.3c0.6,0,1-0.3,1-0.8c0-0.4-0.3-0.7-0.9-1c-0.8-0.3-1.3-0.7-1.3-1.4
    c0-0.7,0.6-1.3,1.5-1.3c0.5,0,0.8,0.1,1.1,0.2l-0.2,0.5c-0.2-0.1-0.5-0.2-0.9-0.2c-0.7,0-0.9,0.4-0.9,0.7c0,0.4,0.3,0.7,1,0.9
    c0.8,0.3,1.2,0.7,1.2,1.4c0,0.7-0.5,1.4-1.7,1.4c-0.5,0-1-0.1-1.2-0.3L65.2,129.2z"/>
  <path class="st2" d="M69.1,128.3c0,0.8,0.6,1.2,1.2,1.2c0.4,0,0.7-0.1,1-0.2l0.1,0.4c-0.2,0.1-0.6,0.2-1.1,0.2
    c-1.1,0-1.7-0.7-1.7-1.7c0-1,0.6-1.9,1.6-1.9c1.1,0,1.4,1,1.4,1.6c0,0.1,0,0.2,0,0.3H69.1z M71,127.9c0-0.4-0.2-1-0.9-1
    c-0.6,0-0.9,0.6-1,1H71z"/>
  <path class="st2" d="M74.8,129.1c0,0.3,0,0.6,0.1,0.8h-0.6l0-0.4h0c-0.2,0.3-0.6,0.5-1.1,0.5c-0.7,0-1.1-0.5-1.1-1
    c0-0.8,0.7-1.3,2.1-1.3v-0.1c0-0.3-0.1-0.8-0.8-0.8c-0.3,0-0.7,0.1-0.9,0.3l-0.1-0.4c0.3-0.2,0.7-0.3,1.1-0.3c1.1,0,1.3,0.7,1.3,1.4
    V129.1z M74.2,128.2c-0.7,0-1.5,0.1-1.5,0.8c0,0.4,0.3,0.6,0.6,0.6c0.4,0,0.7-0.3,0.8-0.6c0-0.1,0-0.1,0-0.2V128.2z"/>
  <path class="st2" d="M75.8,127.5c0-0.4,0-0.8,0-1.1h0.5l0,0.7h0c0.2-0.5,0.5-0.8,1-0.8c0.1,0,0.1,0,0.2,0v0.6c-0.1,0-0.1,0-0.2,0
    c-0.4,0-0.8,0.3-0.8,0.8c0,0.1,0,0.2,0,0.3v1.8h-0.6V127.5z"/>
  <path class="st2" d="M80.5,129.8c-0.2,0.1-0.5,0.2-1,0.2c-1,0-1.7-0.7-1.7-1.8c0-1.1,0.7-1.8,1.8-1.8c0.4,0,0.7,0.1,0.9,0.2
    l-0.1,0.5c-0.1-0.1-0.4-0.2-0.7-0.2c-0.8,0-1.2,0.6-1.2,1.3c0,0.8,0.5,1.3,1.2,1.3c0.4,0,0.6-0.1,0.8-0.2L80.5,129.8z"/>
  <path class="st2" d="M81.2,124.9h0.6v2.1h0c0.1-0.2,0.3-0.3,0.4-0.4c0.2-0.1,0.4-0.2,0.6-0.2c0.5,0,1.2,0.3,1.2,1.5v2h-0.6v-2
    c0-0.6-0.2-1-0.8-1c-0.4,0-0.7,0.3-0.8,0.6c0,0.1,0,0.2,0,0.3v2.1h-0.6V124.9z"/>
  <path class="st2" d="M85.4,130c-0.2,0-0.4-0.2-0.4-0.4c0-0.3,0.2-0.4,0.4-0.4c0.2,0,0.4,0.2,0.4,0.4C85.9,129.8,85.7,130,85.4,130
    L85.4,130z"/>
  <path class="st2" d="M86.9,130c-0.2,0-0.4-0.2-0.4-0.4c0-0.3,0.2-0.4,0.4-0.4s0.4,0.2,0.4,0.4C87.3,129.8,87.2,130,86.9,130
    L86.9,130z"/>
  <path class="st2" d="M88.4,130c-0.2,0-0.4-0.2-0.4-0.4c0-0.3,0.2-0.4,0.4-0.4s0.4,0.2,0.4,0.4C88.8,129.8,88.6,130,88.4,130
    L88.4,130z"/>
  <path class="st2" d="M58.3,177.2c0.3,0.2,0.7,0.3,1.1,0.3c0.6,0,1-0.3,1-0.8c0-0.4-0.3-0.7-0.9-1c-0.8-0.3-1.3-0.7-1.3-1.4
    c0-0.7,0.6-1.3,1.5-1.3c0.5,0,0.8,0.1,1.1,0.2l-0.2,0.5c-0.2-0.1-0.5-0.2-0.9-0.2c-0.7,0-0.9,0.4-0.9,0.7c0,0.4,0.3,0.7,1,0.9
    c0.8,0.3,1.2,0.7,1.2,1.4c0,0.7-0.5,1.4-1.7,1.4c-0.5,0-1-0.1-1.2-0.3L58.3,177.2z"/>
  <path class="st2" d="M62.6,176.5l-0.5,1.5h-0.6l1.6-4.8h0.7l1.6,4.8h-0.7l-0.5-1.5H62.6z M64.2,176l-0.5-1.4
    c-0.1-0.3-0.2-0.6-0.2-0.9h0c-0.1,0.3-0.1,0.6-0.2,0.9l-0.5,1.4H64.2z"/>
  <path class="st2" d="M66.2,173.2h0.6v4.3h2v0.5h-2.7V173.2z"/>
  <path class="st2" d="M72,175.7h-1.9v1.7h2.1v0.5h-2.7v-4.8h2.6v0.5h-2v1.5H72V175.7z"/>
  <path class="st2" d="M58.6,182.3h-1.5v-0.5h3.5v0.5h-1.5v4.3h-0.6V182.3z"/>
  <path class="st2" d="M61.8,181.7v4.8h-0.6v-4.8H61.8z"/>
  <path class="st2" d="M66.9,184.4c0-0.7-0.1-1.5-0.1-2.1h0c-0.2,0.6-0.4,1.2-0.6,1.8l-0.8,2.3h-0.5l-0.8-2.3
    c-0.2-0.7-0.4-1.3-0.6-1.9h0c0,0.6,0,1.4-0.1,2.1l-0.1,2.1h-0.6l0.3-4.8h0.8l0.8,2.3c0.2,0.6,0.4,1.1,0.5,1.6h0
    c0.1-0.5,0.3-1,0.5-1.6l0.9-2.3h0.8l0.3,4.8H67L66.9,184.4z"/>
  <path class="st2" d="M71.1,184.3h-1.9v1.7h2.1v0.5h-2.7v-4.8h2.6v0.5h-2v1.5h1.9V184.3z"/>
  <path class="st2" d="M72.4,186.6c-0.2,0-0.4-0.2-0.4-0.4c0-0.3,0.2-0.4,0.4-0.4c0.3,0,0.4,0.2,0.4,0.4
    C72.8,186.4,72.6,186.6,72.4,186.6L72.4,186.6z M72.1,185.1l-0.1-3.4h0.7l-0.1,3.4H72.1z"/>
  <path class="st1" d="M203.5,97.4h-94.8h-3.2H10.6c-3.4,0-6.3,2.4-6.3,5.8V220h205.3V103.2C209.6,99.8,206.9,97.4,203.5,97.4z
    M201.1,211.5H12.8v-106h188.2V211.5z"/>
</svg>